<svg width="16" height="16" viewBox="0 0 16 16" fill="none" xmlns="http://www.w3.org/2000/svg">
<path d="M2.75 1H13.25C14.216 1 15 1.784 15 2.75V13.25C15 13.7141 14.8156 14.1592 14.4874 14.4874C14.1592 14.8156 13.7141 15 13.25 15H2.75C2.28587 15 1.84075 14.8156 1.51256 14.4874C1.18437 14.1592 1 13.7141 1 13.25V2.75C1 1.784 1.784 1 2.75 1ZM2.5 2.75V13.25C2.5 13.388 2.612 13.5 2.75 13.5H13.25C13.3163 13.5 13.3799 13.4737 13.4268 13.4268C13.4737 13.3799 13.5 13.3163 13.5 13.25V2.75C13.5 2.6837 13.4737 2.62011 13.4268 2.57322C13.3799 2.52634 13.3163 2.5 13.25 2.5H2.75C2.6837 2.5 2.62011 2.52634 2.57322 2.57322C2.52634 2.62011 2.5 2.6837 2.5 2.75ZM11.78 6.28L7.28 10.78C7.13937 10.9205 6.94875 10.9993 6.75 10.9993C6.55125 10.9993 6.36063 10.9205 6.22 10.78L4.22 8.78C4.08736 8.63785 4.0151 8.44975 4.01846 8.25536C4.02181 8.06097 4.10053 7.87548 4.238 7.738C4.37548 7.60053 4.56097 7.52181 4.75536 7.51846C4.94975 7.5151 5.13785 7.58736 5.28 7.72L6.75 9.19L10.72 5.22C10.8621 5.08736 11.0502 5.0151 11.2446 5.01846C11.439 5.02181 11.6245 5.10053 11.762 5.238C11.8995 5.37548 11.9782 5.56097 11.9815 5.75536C11.9849 5.94975 11.9126 6.13785 11.78 6.28Z" fill="white"/>
</svg>
